<?xml version="1.0" encoding="UTF-8"?>
<svg width="752pt" height="752pt" version="1.1" viewBox="0 0 752 752" xmlns="http://www.w3.org/2000/svg">
 <path d="m344.51 304.96-4.2617-11.176c3.9844-1.5352 7.8633-3.3398 11.602-5.3984 3.0547-1.6758 5.5312-4.2344 7.1055-7.3438 0.94531-2.1562 1.3047-4.5234 1.043-6.8672-0.070313-1.1289-0.29297-2.2422-0.66406-3.3125l14.633-5.2109 41.438 87.992-20.883 8.1445-27.988-65.023zm96.281-52.094c10.48 6.9102 19.191 16.191 25.43 27.09 8.8086 13.875 13.449 26 13.543 36.039s-6.2031 18.184-18.941 23.109c-11.062 5.1367-24.012 4.0352-34.051-2.8906-10.875-8.5742-19.465-19.699-25.004-32.391-6.8203-14.207-9.4727-25.195-8.3828-33.859 1.0898-8.668 7.2461-14.539 18.328-18.516v-0.003906c9.3906-4.0352 20.121-3.5117 29.078 1.4219zm-4.7344 66.301h-0.003907c3.8867 4.7461 10.379 6.4648 16.102 4.2617 2.625-0.69922 4.8203-2.4883 6.0352-4.9141 1.2109-2.4297 1.3242-5.2617 0.3125-7.7773-2.4805-8.4609-6.1484-16.531-10.895-23.965-4.0508-7.5078-9.1328-14.41-15.105-20.504-3.6875-3.793-9.3164-4.957-14.207-2.9375-4.6953 1.1055-7.6719 5.7344-6.7266 10.465 1.7812 8.0586 4.832 15.781 9.0469 22.875 4.0312 8.1719 9.1797 15.742 15.297 22.496zm151.68 9.4727-28.414-47.359c-1.0078-1.7266-2.5547-3.0742-4.4023-3.8359l-246.26-104.19h-0.003906c-4.5586-1.9414-9.8438-0.042969-12.121 4.3555l-127.87 246.26c-1.625 3.1367-1.3672 6.918 0.66406 9.8047l33.152 47.359h-0.003906c1.0586 1.4883 2.5195 2.6367 4.2148 3.3125l246.26 99.453c4.5469 1.8398 9.7422-0.089844 11.984-4.4531l123.13-241.53-0.003907 0.003906c1.4844-2.9141 1.3594-6.3906-0.33203-9.1875zm-259.52 33.812-17.191-167.65 229.74 97.086-67.438 88.559zm-140.08 64.93 114.61-220.79 16.434 158.08-86.285 81.551-44.562-18.562zm28.414 40.348-18.09-25.43 33.152 13.828 120.15 66.301zm236.65 92.965-1.1836 2.3203-27.562-11.129-182.52-101.11 83.59-79.277 144.72 18.09zm11.84-23.254 15.152-150.17 67.488-88.75 21.121 35.234z"/>
</svg>
