<?xml version="1.0" encoding="UTF-8"?>
<svg width="752pt" height="752pt" version="1.1" viewBox="0 0 752 752" xmlns="http://www.w3.org/2000/svg">
 <path d="m304.44 291.37-9.4727-10.371h0.003906c4.1719-2.6211 8.1445-5.5508 11.887-8.7617 2.9102-2.4062 4.8867-5.7578 5.5859-9.4688 0.30469-2.4844-0.17578-5-1.3711-7.1992-0.51562-1.1523-1.2031-2.2227-2.0391-3.1719l14.871-9 80.133 76.293-19.75 14.492-56.828-57.398zm96.277 1.4688c-3.2188-7.0547-3.3164-16.527-0.33203-28.414h0.003906c1.8281-6.3867 3.0352-12.938 3.5977-19.559-0.050781-4.957-2.3945-9.6055-6.3438-12.598-3.1523-2.5664-6.957-4.207-10.988-4.7344-4.0117-0.54297-8.0859 0.34766-11.508 2.5078-5.0664 3.0781-6.8672 6.6289-5.3516 10.656 1.8008 3.6484 4.3516 6.875 7.4844 9.4727l-16.957 10.75c-5.1094-4.5117-8.9844-10.25-11.27-16.672-2.5586-9.2344 1.8945-17.145 13.215-23.68h-0.003906c8.0781-4.9961 17.461-7.4688 26.949-7.1016 9.2031 0.40625 18.043 3.7227 25.242 9.4727 5.3672 3.7461 9.1602 9.3477 10.656 15.723 0.73828 5.4922 0.38672 11.078-1.043 16.434l-1.8008 8.4766c-0.91016 3.8086-1.6055 7.668-2.082 11.555-0.22266 2.3516 0.050781 4.7227 0.80469 6.9609l36.797-25.953 16.102 12.457-59.672 43.805c-5.875-5.4531-10.48-12.129-13.496-19.559zm178.21 70.516-40.68-99.453v0.003906c-0.64062-1.5977-1.707-2.9883-3.0781-4.0273l-108.4-81.219c-2.0664-1.4453-4.6211-2.0078-7.1055-1.5625l-149.13 22.352c-2.1562 0.33594-4.1289 1.4062-5.5898 3.0312l-45.227 49.68c-0.75781 0.85547-1.3633 1.832-1.7969 2.8906l-49.633 126.54c-0.75391 2.082-0.75391 4.3594 0 6.4414l15.816 47.359v-0.003906c0.42578 1.1992 1.0664 2.3047 1.8945 3.2695l99.453 112.95c0.64453 0.72656 1.3945 1.3477 2.2266 1.8477l33.859 20.316c1.4297 0.86719 3.0625 1.3398 4.7383 1.3711 0.58203 0.046875 1.168 0.046875 1.75 0l122-22.59c0.93359-0.19922 1.8398-0.51953 2.6992-0.94531l76.719-40.727c2.1992-1.1211 3.8906-3.0352 4.7344-5.3516l44.992-135.59c0.71094-2.1523 0.625-4.4883-0.23828-6.5859zm-60.855-92.535-111.43 90.973-147.19-56.496 20.176-88.039 139-21.219zm-283.11-7.1992 32.535-35.754-18.137 78.848-52.664 107.17-9.4727-28.699zm-33.672 164.05-0.51953-0.89844 55.457-112.33 147.05 55.977 21.5 133.17-125.5 34.996-0.85156-0.51953zm243.75 106.46-117.07 21.832-17.523-10.512 120.53-33.578 69.145-6.7266zm73.023-40.395-83.824 8.3828-21.641-133.22 111.1-90.504 36.371 88.891z"/>
</svg>
