<?xml version="1.0" encoding="UTF-8"?>
<svg width="752pt" height="752pt" version="1.1" viewBox="0 0 752 752" xmlns="http://www.w3.org/2000/svg">
 <path d="m568.65 465.08-210.27-293.05c-1.9219-2.6758-5.0977-4.1562-8.3789-3.9141-3.2852 0.24219-6.2109 2.1719-7.7227 5.0977l-140.75 273.16c-1.6406 3.1992-1.332 7.0508 0.80469 9.9453l91.07 124.17c1.7773 2.4375 4.6094 3.8789 7.625 3.8867 1.1953-0.011718 2.3828-0.23438 3.5039-0.66406l259.95-104.19c2.6641-1.0938 4.6914-3.3359 5.5-6.1016 0.8125-2.7656 0.32031-5.75-1.3359-8.1055zm-347.56-15.25 119.91-232.77-42.34 338.61zm86.285 112.34 45.652-365.13 193.46 269.28zm145.91-132.6-11.699 3.8828 10.609 30.355-21.453 7.8633-9.707-31.258-45.039 15.012-5.5859-24.484 19.793-80.938 20.602-4.7344 23.68 68.434 11.414-3.5039zm-38.598-9.8516-15.629-50.531-11.504 58.91z"/>
</svg>
