<?xml version="1.0" encoding="UTF-8"?>
<svg width="752pt" height="752pt" version="1.1" viewBox="0 0 752 752" xmlns="http://www.w3.org/2000/svg">
 <path d="m358.81 308.23c-1.2617-5.2031-0.33984-10.695 2.5586-15.199-6.1445 0.17969-12.238-1.1367-17.758-3.8359-3.9453-2.0664-7.5391-4.7344-10.656-7.9102-5.6328-5.3633-8.2695-13.152-7.0547-20.836 1.1992-7.5469 6.6914-14.113 16.48-19.699v-0.003906c8.6172-5.3594 18.82-7.582 28.887-6.2969 8.8398 1.0742 17.027 5.1914 23.156 11.648 2.7656 3.0352 4.9492 6.5508 6.4414 10.371 1.6094 4.5508 1.1758 9.5742-1.1836 13.781 6.7695-0.39844 13.539 0.75 19.797 3.3633 6.1055 2.5234 11.586 6.3555 16.055 11.223 6.4336 6.207 9.5273 15.105 8.3359 23.965-1.3242 8.6523-7.4492 16.102-18.375 22.352-8.9922 5.7695-19.719 8.207-30.32 6.8828-10.602-1.3242-20.402-6.3242-27.695-14.129-4.25-4.3477-7.2422-9.7617-8.668-15.676zm40.871 10.941c4.6836 0.96094 9.5547 0.11328 13.641-2.3672 3.8359-1.7227 6.5039-5.3047 7.0547-9.4727-0.066406-4.6367-2.0781-9.0352-5.5391-12.125-3.4492-4.0195-8.0977-6.8281-13.262-8.0039-4.6641-0.86328-9.4844 0.011719-13.543 2.4648-3.8086 1.7578-6.4648 5.3203-7.0586 9.4727 0.035156 4.7188 2.0859 9.1992 5.6367 12.312 3.4258 3.8945 8.0039 6.5977 13.07 7.7188zm-35.801-40.445c4.0312 0.70313 8.1836-0.070312 11.695-2.1758 3.3672-1.4922 5.7422-4.6016 6.3008-8.2422 0.085938-3.5898-1.3828-7.043-4.0273-9.4727-2.8008-3.2148-6.5742-5.4258-10.75-6.2969-4.0898-0.68359-8.293 0.12109-11.84 2.2734-3.3164 1.5156-5.6875 4.5586-6.3438 8.1445-0.14453 3.8008 1.418 7.4648 4.2617 9.9922 2.7852 2.9531 6.4609 4.9141 10.465 5.5898zm215.76-12.977c-1.1641-2.2734-3.1953-3.9805-5.6367-4.7344l-303.89-90.121c-4.9688-1.5156-10.227 1.2539-11.793 6.2031l-90.266 294.76c-1.5117 4.9648 1.2539 10.227 6.207 11.789l304.13 95.051c0.91406 0.31641 1.875 0.47656 2.8398 0.47266 1.543 0 3.0586-0.39062 4.4062-1.1367 2.2734-1.1641 3.9805-3.1953 4.7344-5.6367l89.98-299.4c0.73828-2.4102 0.48047-5.0195-0.71094-7.2461zm-25.621 9.4727-235.8 139.61-43.613-222.82zm-285.71-65.828 41.105 209.94-119.34 45.32zm-69.57 262.08 115.13-43.711 139 123.13zm276.15 86.285-152.02-134.69 234.33-139z"/>
</svg>
